<svg xmlns="http://www.w3.org/2000/svg" width="813.7" height="992.5" viewBox="0 0 813.7 992.5"><defs><style>.cls-1{isolation:isolate;}.cls-2{fill:#e51730;}.cls-2,.cls-3{mix-blend-mode:multiply;}.cls-3{fill:none;stroke:blue;stroke-miterlimit:10;stroke-width:13px;}</style></defs><title>Asset 2</title><g class="cls-1"><g id="Layer_2" data-name="Layer 2"><g id="Layer_1-2" data-name="Layer 1"><path class="cls-2" d="M625.56,123.36C536.77,1,419.18,10.4,419.18,10.4L170.3,12.58c-21.59.19-42.94,6.08-60.7,18.12C89.2,44.53,68.81,68.06,68.81,106.89V607.62a10.13,10.13,0,0,0,14.43,9.18L609.73,369.88a76.82,76.82,0,0,0,39.45-42.68C667.29,278.48,680.85,199.56,625.56,123.36Z"/><path class="cls-2" d="M544.1,422.8l-533,250A19.22,19.22,0,0,0,0,690.19V890.94c0,20.75,5.05,41.39,15.9,59.2,12.9,21.18,35.7,42.36,75.29,42.36H524.52c.74,0,1.47,0,2.2-.11,19-1.88,263.09-30.77,270-270.53C802.49,522.57,656.62,442,589.15,420A61.35,61.35,0,0,0,544.1,422.8Z"/></g><g id="Layer_2-2" data-name="Layer 2"><path class="cls-3" d="M646.54,112.57C563.29-2.17,453,6.66,453,6.66l-233.35,2c-20.24.18-40.26,5.7-56.91,17-19.13,13-38.26,35-38.26,71.44v469.5a9.51,9.51,0,0,0,13.54,8.6L631.7,343.72a72,72,0,0,0,37-40C685.67,258,698.38,184,646.54,112.57Z"/><path class="cls-3" d="M570.16,404.33,70.38,638.72A18,18,0,0,0,60,655.05V843.28c0,19.45,4.74,38.8,14.91,55.5C87,918.64,108.38,938.5,145.5,938.5H551.8a20.35,20.35,0,0,0,2.07-.1c17.79-1.77,246.68-28.85,253.17-253.66,5.39-186.86-131.38-262.46-194.63-283A57.53,57.53,0,0,0,570.16,404.33Z"/></g></g></g></svg>
