<svg xmlns="http://www.w3.org/2000/svg" width="822.9" height="983.27" viewBox="0 0 822.9 983.27"><defs><style>.cls-1{isolation:isolate;}.cls-2{fill:#e51730;}.cls-2,.cls-3{mix-blend-mode:multiply;}.cls-3{fill:blue;}</style></defs><title>Asset 3</title><g class="cls-1"><g id="Layer_2" data-name="Layer 2"><g id="Layer_1-2" data-name="Layer 1"><path class="cls-2" d="M625.56,114.13C536.77-8.25,419.18,1.17,419.18,1.17L170.3,3.35c-21.59.19-42.94,6.08-60.7,18.12C89.2,35.29,68.81,58.82,68.81,97.65V598.39a10.13,10.13,0,0,0,14.43,9.17L609.73,360.65A76.81,76.81,0,0,0,649.18,318C667.29,269.25,680.85,190.32,625.56,114.13Z"/><path class="cls-2" d="M544.1,413.56l-533,250A19.21,19.21,0,0,0,0,681V881.71c0,20.74,5.05,41.38,15.9,59.2,12.9,21.18,35.7,42.36,75.29,42.36H524.52c.74,0,1.47,0,2.2-.11,19-1.89,263.09-30.77,270-270.53,5.76-199.3-140.11-279.92-207.58-301.88A61.35,61.35,0,0,0,544.1,413.56Z"/></g><g id="Layer_1_copy" data-name="Layer 1 copy"><path class="cls-3" d="M651.56,113.13C562.77-9.25,445.18.17,445.18.17L196.3,2.35c-21.59.19-42.94,6.08-60.7,18.12C115.2,34.29,94.81,57.82,94.81,96.65V597.39a10.13,10.13,0,0,0,14.43,9.17L635.73,359.65A76.81,76.81,0,0,0,675.18,317C693.29,268.25,706.85,189.32,651.56,113.13Z"/><path class="cls-3" d="M570.1,412.56l-533,250A19.21,19.21,0,0,0,26,680V880.71c0,20.74,5.05,41.38,15.9,59.2,12.9,21.18,35.7,42.36,75.29,42.36H550.52c.74,0,1.47,0,2.2-.11,19-1.89,263.09-30.77,270-270.53,5.76-199.3-140.11-279.92-207.58-301.88A61.35,61.35,0,0,0,570.1,412.56Z"/></g></g></g></svg>
